<?xml version="1.0" encoding="UTF-8"?>
<!DOCTYPE svg PUBLIC "-//W3C//DTD SVG 1.1//EN" "http://www.w3.org/Graphics/SVG/1.1/DTD/svg11.dtd">
<svg xmlns="http://www.w3.org/2000/svg" version="1.1" width="137px" height="121px" style="shape-rendering:geometricPrecision; text-rendering:geometricPrecision; image-rendering:optimizeQuality; fill-rule:evenodd; clip-rule:evenodd" xmlns:xlink="http://www.w3.org/1999/xlink">
<g><path style="opacity:0.954" fill="#343534" d="M 100.5,42.5 C 99.5326,41.1938 98.1993,40.5271 96.5,40.5C 90.8599,23.6742 79.1933,16.5075 61.5,19C 58.4788,20.1798 55.4788,21.3465 52.5,22.5C 51.6364,22.2976 50.6364,21.9643 49.5,21.5C 50.0253,20.8076 50.6919,20.3076 51.5,20C 51.2716,19.6012 50.9382,19.4346 50.5,19.5C 62.2217,11.6994 74.2217,11.5328 86.5,19C 94.8989,24.6342 99.5656,32.4676 100.5,42.5 Z"/></g>
<g><path style="opacity:0.986" fill="#353634" d="M 75.5,25.5 C 82.0879,26.6114 86.4212,30.278 88.5,36.5C 87.6618,36.8417 87.3284,37.5084 87.5,38.5C 84.5,38.5 81.5,38.5 78.5,38.5C 77.4019,37.603 77.4019,36.7697 78.5,36C 76.7409,33.7293 74.7409,32.7293 72.5,33C 74.0009,31.7485 75.6675,30.7485 77.5,30C 75.3209,28.0131 73.4876,28.1798 72,30.5C 71.0975,29.2986 69.9308,28.4652 68.5,28C 70.441,26.0972 72.7743,25.2639 75.5,25.5 Z"/></g>
<g><path style="opacity:0.985" fill="#313131" d="M 75.5,25.5 C 72.7743,25.2639 70.441,26.0972 68.5,28C 69.9308,28.4652 71.0975,29.2986 72,30.5C 73.4876,28.1798 75.3209,28.0131 77.5,30C 75.6675,30.7485 74.0009,31.7485 72.5,33C 74.7409,32.7293 76.7409,33.7293 78.5,36C 77.4019,36.7697 77.4019,37.603 78.5,38.5C 75.3497,38.1176 72.6831,36.7843 70.5,34.5C 68.8888,35.3202 68.2222,36.6536 68.5,38.5C 67.7611,38.369 67.0944,38.5357 66.5,39C 70.4894,41.8955 70.3228,42.7289 66,41.5C 64.5405,41.8082 63.3739,42.4749 62.5,43.5C 57.4251,35.7627 59.0918,29.596 67.5,25C 70.367,24.1993 73.0336,24.3659 75.5,25.5 Z"/></g>
<g><path style="opacity:0.968" fill="#333232" d="M 68.5,38.5 C 74.0163,40.8434 79.183,43.8434 84,47.5C 87.2187,61.2857 81.7187,67.1191 67.5,65C 64.0559,62.9442 60.3892,61.4442 56.5,60.5C 54.6998,60.9024 53.0332,61.5691 51.5,62.5C 53.0336,58.4487 55.8669,57.782 60,60.5C 60.805,58.0989 61.6383,58.2656 62.5,61C 65.2975,62.9137 68.2975,63.9137 71.5,64C 70.5,62.3333 69.1667,61 67.5,60C 68.745,59.2086 70.0783,58.7086 71.5,58.5C 75.3658,57.9946 76.6991,55.9946 75.5,52.5C 72.3272,50.4128 68.9939,48.5795 65.5,47C 64.2899,45.9609 63.2899,44.7942 62.5,43.5C 63.3739,42.4749 64.5405,41.8082 66,41.5C 70.3228,42.7289 70.4894,41.8955 66.5,39C 67.0944,38.5357 67.7611,38.369 68.5,38.5 Z"/></g>
<g><path style="opacity:0.106" fill="#428579" d="M 88.5,36.5 C 93.6438,36.3965 94.3104,37.5632 90.5,40C 91.6039,41.1313 91.2705,41.9646 89.5,42.5C 87.8888,41.6798 87.2222,40.3464 87.5,38.5C 87.3284,37.5084 87.6618,36.8417 88.5,36.5 Z"/></g>
<g><path style="opacity:0.934" fill="#333333" d="M 50.5,19.5 C 50.9382,19.4346 51.2716,19.6012 51.5,20C 50.6919,20.3076 50.0253,20.8076 49.5,21.5C 50.6364,21.9643 51.6364,22.2976 52.5,22.5C 42.593,29.5165 38.2597,39.1832 39.5,51.5C 38.6851,52.4293 37.8518,53.4293 37,54.5C 36.7216,53.5842 36.2216,52.9175 35.5,52.5C 33.3813,38.1646 38.3813,27.1646 50.5,19.5 Z"/></g>
<g><path style="opacity:0.964" fill="#353535" d="M 96.5,40.5 C 98.1993,40.5271 99.5326,41.1938 100.5,42.5C 102.293,52.0184 100.126,60.6851 94,68.5C 92.2228,70.7899 90.0562,72.4566 87.5,73.5C 86.0413,73.5674 84.7079,73.2341 83.5,72.5C 94.4551,64.5819 98.7885,53.9153 96.5,40.5 Z"/></g>
<g><path style="opacity:0.795" fill="#323232" d="M 39.5,51.5 C 40.4843,55.9555 42.1509,60.1222 44.5,64C 43.1621,67.3502 41.8288,70.6835 40.5,74C 43.404,73.4347 46.404,72.9347 49.5,72.5C 51.2327,73.0076 51.566,73.841 50.5,75C 46.4916,75.7907 42.6583,76.9574 39,78.5C 37.7441,78.3517 36.5774,78.0184 35.5,77.5C 36.4245,73.0587 37.7578,68.7254 39.5,64.5C 37.5563,60.669 36.223,56.669 35.5,52.5C 36.2216,52.9175 36.7216,53.5842 37,54.5C 37.8518,53.4293 38.6851,52.4293 39.5,51.5 Z"/></g>
<g><path style="opacity:0.877" fill="#343433" d="M 71.5,58.5 C 70.0783,58.7086 68.745,59.2086 67.5,60C 69.1667,61 70.5,62.3333 71.5,64C 68.2975,63.9137 65.2975,62.9137 62.5,61C 61.6383,58.2656 60.805,58.0989 60,60.5C 55.8669,57.782 53.0336,58.4487 51.5,62.5C 49.7775,64.2528 48.2775,66.2528 47,68.5C 44.9782,64.0287 45.8115,60.0287 49.5,56.5C 57.2099,52.8404 64.5432,53.5071 71.5,58.5 Z"/></g>
<g><path style="opacity:0.976" fill="#303030" d="M 49.5,72.5 C 49.9169,71.8761 50.5836,71.5427 51.5,71.5C 56.8637,74.1766 62.5303,75.8432 68.5,76.5C 73.6444,75.6309 78.6444,74.2975 83.5,72.5C 84.7079,73.2341 86.0413,73.5674 87.5,73.5C 82.2165,78.2933 75.8831,80.6266 68.5,80.5C 62.2844,80.0572 56.2844,78.7239 50.5,76.5C 45.9605,77.6856 41.4605,79.0189 37,80.5C 34.7541,80.0229 34.2541,79.0229 35.5,77.5C 36.5774,78.0184 37.7441,78.3517 39,78.5C 42.6583,76.9574 46.4916,75.7907 50.5,75C 51.566,73.841 51.2327,73.0076 49.5,72.5 Z"/></g>
<g><path style="opacity:0.87" fill="#323534" d="M 110.5,100.5 C 110.5,99.5 110.5,98.5 110.5,97.5C 110.672,96.5084 110.338,95.8417 109.5,95.5C 109.5,94.8333 109.833,94.5 110.5,94.5C 113.05,92.2537 115.883,91.5871 119,92.5C 119.494,90.8659 119.66,89.1992 119.5,87.5C 121.167,87.5 122.833,87.5 124.5,87.5C 124.5,93.5 124.5,99.5 124.5,105.5C 120.818,105.665 117.152,105.499 113.5,105C 111.624,104.082 110.624,102.582 110.5,100.5 Z M 116.5,95.5 C 118.484,95.484 119.484,96.484 119.5,98.5C 119.566,100.266 118.732,101.266 117,101.5C 113.897,99.888 113.73,97.888 116.5,95.5 Z"/></g>
<g><path style="opacity:0.963" fill="#3c9788" d="M 106.5,86.5 C 110.138,85.7366 111.638,87.0699 111,90.5C 106.415,92.4126 104.915,91.0793 106.5,86.5 Z"/></g>
<g><path style="opacity:0.864" fill="#333333" d="M 17.5,87.5 C 19.8056,87.9926 22.139,88.3259 24.5,88.5C 24.7852,90.288 24.4519,91.9547 23.5,93.5C 21.4841,92.2941 19.4841,92.2941 17.5,93.5C 20.1784,94.5548 22.6784,95.8882 25,97.5C 25.9439,100.347 25.4439,102.847 23.5,105C 19.8333,105.667 16.1667,105.667 12.5,105C 11.1667,103.667 11.1667,102.333 12.5,101C 22.3694,101.707 22.7027,100.541 13.5,97.5C 11.7438,95.8087 11.2438,93.8087 12,91.5C 13.4998,89.5313 15.3331,88.198 17.5,87.5 Z"/></g>
<g><path style="opacity:0.841" fill="#333333" d="M 33.5,91.5 C 35.6957,91.5652 37.6957,92.2319 39.5,93.5C 40.4328,97.4295 40.7662,101.429 40.5,105.5C 38.8333,105.5 37.1667,105.5 35.5,105.5C 35.5,102.5 35.5,99.5 35.5,96.5C 34.1779,96.33 33.0113,96.6634 32,97.5C 31.5026,100.146 31.3359,102.813 31.5,105.5C 29.8333,105.5 28.1667,105.5 26.5,105.5C 26.5,101.167 26.5,96.8333 26.5,92.5C 29.0593,92.8016 31.3926,92.4682 33.5,91.5 Z"/></g>
<g><path style="opacity:0.813" fill="#343434" d="M 46.5,91.5 C 49.505,91.253 52.005,92.253 54,94.5C 54.2565,97.557 54.7565,100.557 55.5,103.5C 55.2907,104.086 54.9574,104.586 54.5,105C 49.764,106.218 45.5973,105.384 42,102.5C 41.6939,99.3095 43.1939,97.4762 46.5,97C 41.3157,95.196 41.3157,93.3627 46.5,91.5 Z"/></g>
<g><path style="opacity:0.831" fill="#323232" d="M 57.5,87.5 C 58.8333,87.5 60.1667,87.5 61.5,87.5C 61.3359,90.1873 61.5026,92.854 62,95.5C 64.4154,92.8579 67.2488,92.1913 70.5,93.5C 69.3523,95.1487 68.019,96.6487 66.5,98C 67.9752,100.309 69.6419,102.476 71.5,104.5C 70.5,104.833 69.5,105.167 68.5,105.5C 66.1242,104.774 64.1242,103.441 62.5,101.5C 61.5713,102.689 61.238,104.022 61.5,105.5C 59.8561,105.714 58.3561,105.38 57,104.5C 56.2153,98.7507 56.3819,93.084 57.5,87.5 Z"/></g>
<g><path style="opacity:1" fill="#30a28f" d="M 110.5,94.5 C 109.833,94.5 109.5,94.8333 109.5,95.5C 109.328,96.4916 109.662,97.1583 110.5,97.5C 110.5,98.5 110.5,99.5 110.5,100.5C 109.778,100.082 109.278,99.4158 109,98.5C 108.667,100.167 108.333,101.833 108,103.5C 107.481,104.516 106.647,105.182 105.5,105.5C 102.987,105.039 100.32,105.039 97.5,105.5C 97.5,104.5 97.5,103.5 97.5,102.5C 94.7531,102.187 92.0865,102.52 89.5,103.5C 88.8291,104.946 87.6624,105.612 86,105.5C 84.9302,105.472 84.0968,105.139 83.5,104.5C 83.5,103.833 83.5,103.167 83.5,102.5C 84.5,102.167 85.1667,101.5 85.5,100.5C 88.3036,96.8459 90.9703,93.0125 93.5,89C 95.2588,88.2025 96.9255,88.3691 98.5,89.5C 99.6912,93.9861 101.191,98.3194 103,102.5C 103.539,99.4715 104.206,96.4715 105,93.5C 107.235,92.0198 109.068,92.3531 110.5,94.5 Z M 94.5,95.5 C 95.7125,96.4971 95.5458,97.4971 94,98.5C 93.5304,97.4232 93.6971,96.4232 94.5,95.5 Z"/></g>
<g><path style="opacity:1" fill="#323435" d="M 85.5,100.5 C 83.0065,100.131 82.3398,100.797 83.5,102.5C 83.5,103.167 83.5,103.833 83.5,104.5C 77.5645,106.896 73.2312,105.229 70.5,99.5C 72.8184,91.5625 77.3184,89.8959 84,94.5C 85.128,96.3453 85.628,98.3453 85.5,100.5 Z M 77.5,96.5 C 78.0768,95.2267 78.7435,95.2267 79.5,96.5C 79.0302,97.463 78.3635,97.463 77.5,96.5 Z"/></g>
</svg>
